<?xml version="1.0"?>
<svg width="152" height="60" xmlns="http://www.w3.org/2000/svg" xmlns:svg="http://www.w3.org/2000/svg">
 <defs>
  <clipPath id="clip0_561_181">
   <rect fill="white" height="60" id="svg_1" width="151.53"/>
  </clipPath>
 </defs>
 <g class="layer">
  <title>Layer 1</title>
  <g clip-path="url(#clip0_561_181)" id="svg_2">
   <path d="m22.32,16.31c3.69,-2.11 6.77,-2.11 10.93,-2.11l22.81,0c-1.13,-1.82 -2.47,-3.51 -3.96,-5.04l-18.85,0c-5.14,0 -8.62,0.01 -13.48,2.79c-6.28,3.61 -10.52,10.34 -10.52,18.05c0,0.85 0.06,1.69 0.16,2.52l5.04,0c-0.08,-0.82 -0.11,-1.67 -0.11,-2.52c0,-5.85 3.21,-10.96 7.98,-13.69z" fill="#F0047F" id="svg_3"/>
   <path d="m17.69,8.38c5.77,-3.31 9.62,-3.34 15.56,-3.34l13.87,0c-4.81,-3.18 -10.59,-5.04 -16.82,-5.04c-5.34,0 -10.52,1.37 -15.15,4.02c-9.47,5.42 -15.15,15.34 -15.15,25.98c0,0.83 0.03,1.69 0.11,2.52l5.11,0c-0.09,-0.83 -0.13,-1.67 -0.13,-2.52c0,-9.24 5.07,-17.31 12.6,-21.62z" fill="#F0047F" id="svg_4"/>
   <path d="m33.25,18.32c-3.19,0 -6.11,0 -8.84,1.56c-3.53,2.02 -5.9,5.79 -5.9,10.12c0,0.86 0.06,1.71 0.22,2.52l5.19,0c-0.22,-0.79 -0.32,-1.63 -0.32,-2.52c0,-2.46 1.35,-4.61 3.35,-5.75c1.56,-0.9 4.36,-0.89 6.3,-0.89l26.62,0c-0.4,-1.74 -0.95,-3.43 -1.64,-5.04l-24.98,0z" fill="#F0047F" id="svg_5"/>
   <path d="m81.94,13.28l-6.18,13.86l4.04,0l1.11,-2.69l5.91,0l1.1,2.69l4.13,0l-6.21,-13.86l-3.89,0l-0.01,0zm0.12,8.28l1.8,-4.44l1.8,4.44l-3.59,0l-0.01,0z" fill="#F0047F" id="svg_6"/>
   <path d="m107.24,13.28l-4.16,0l-3.34,5.38l-1.89,0l0,-5.38l-3.94,0l0,13.86l3.94,0l0,-5.31l1.8,0l3.17,5.31l4.46,0l-4.42,-7.17l4.38,-6.69z" fill="#F0047F" id="svg_7"/>
   <path d="m117.86,19.3c-0.7,0.32 -1.52,0.47 -2.48,0.47c-1.76,0 -2.64,-0.88 -2.64,-2.67l0,-3.82l-3.9,0l0,4.26c0,1.75 0.51,3.09 1.55,4.02c1.03,0.93 2.52,1.4 4.49,1.4c0.9,0 1.89,-0.18 2.97,-0.53l0,4.7l3.9,0l0,-13.85l-3.9,0l0,6.02l0.01,0z" fill="#F0047F" id="svg_8"/>
   <path d="m133.74,13.28l-3.9,0l-6.18,13.86l4.05,0l1.1,-2.69l5.91,0l1.1,2.69l4.13,0l-6.2,-13.86l-0.01,0zm-3.78,8.28l1.8,-4.44l1.8,4.44l-3.59,0l-0.01,0z" fill="#F0047F" id="svg_9"/>
   <path d="m40.84,48.05c6.29,-3.61 10.52,-10.34 10.52,-18.05c0,-0.85 -0.05,-1.69 -0.15,-2.52l-5.05,0c0.08,0.82 0.11,1.67 0.11,2.52c0,5.85 -3.21,10.96 -7.97,13.69c-3.7,2.11 -6.77,2.11 -10.94,2.11l-22.82,0c1.14,1.82 2.47,3.51 3.97,5.04l18.85,0c5.15,0 8.62,-0.01 13.48,-2.79z" fill="#ffffff" id="svg_10"/>
   <path d="m55.4,27.48c0.08,0.83 0.12,1.67 0.12,2.52c0,9.24 -5.06,17.3 -12.6,21.62c-5.77,3.31 -9.62,3.34 -15.56,3.34l-13.87,0c4.81,3.18 10.6,5.03 16.81,5.03c5.35,0 10.53,-1.37 15.16,-4.01c9.47,-5.43 15.15,-15.35 15.15,-25.99c0,-0.83 -0.03,-1.69 -0.11,-2.52l-5.11,0l0.01,0.01z" fill="#ffffff" id="svg_11" transform="matrix(1 0 0 1 0 0)"/>
   <path d="m36.21,40.11c3.52,-2.02 5.89,-5.79 5.89,-10.11c0,-0.87 -0.05,-1.71 -0.21,-2.52l-5.19,0c0.22,0.79 0.31,1.63 0.31,2.52c0,2.46 -1.34,4.6 -3.35,5.75c-1.56,0.89 -4.36,0.89 -6.3,0.89l-26.61,0c0.39,1.74 0.94,3.42 1.63,5.04l24.98,0c3.19,0 6.11,0 8.85,-1.57z" fill="#ffffff" id="svg_12"/>
   <path d="m87.18,38.84c-0.91,-0.71 -2.21,-1.07 -3.9,-1.07l-3.62,0l0,-2.24l7.8,0l0,-3.02l-11.7,0l0,13.85l6.99,0c1.83,0 3.25,-0.39 4.27,-1.18c1.01,-0.78 1.51,-1.87 1.51,-3.27c0,-1.4 -0.45,-2.36 -1.35,-3.07l0,0zm-3.16,4.32c-0.35,0.26 -0.85,0.39 -1.52,0.39l-2.83,0l0,-2.99l2.83,0c1.36,0 2.05,0.49 2.05,1.47c0,0.49 -0.18,0.86 -0.52,1.13l-0.01,0z" fill="#ffffff" id="svg_13" transform="matrix(1 0 0 1 0 0)"/>
   <path d="m100.24,32.51l-3.38,6.68l-3.26,-6.68l-4.18,0l5.44,9.97c-0.25,0.37 -0.53,0.64 -0.83,0.81c-0.3,0.17 -0.64,0.26 -1.03,0.26c-0.39,0 -0.85,-0.08 -1.4,-0.24l-0.94,2.89c0.88,0.34 1.71,0.51 2.48,0.51c1.05,0 2.02,-0.29 2.91,-0.89c0.89,-0.59 1.63,-1.46 2.25,-2.61l5.8,-10.71l-3.86,0l0,0.01z" fill="#ffffff" id="svg_14" transform="matrix(1 0 0 1 0 0)"/>
   <path d="m106.63,38.02c-0.04,1.18 -0.12,2.13 -0.24,2.87c-0.12,0.73 -0.32,1.3 -0.6,1.71c-0.28,0.41 -0.68,0.62 -1.2,0.62c-0.19,0 -0.37,-0.03 -0.54,-0.06l-0.22,3.2c0.67,0.16 1.27,0.24 1.8,0.24c1.15,0 2.04,-0.34 2.67,-1.02c0.62,-0.68 1.06,-1.64 1.33,-2.88c0.26,-1.24 0.42,-2.85 0.49,-4.83l0.08,-2.25l4.02,0l0,10.74l3.9,0l0,-13.85l-11.28,0l-0.2,5.52l-0.01,-0.01z" fill="#ffffff" id="svg_15" transform="matrix(1 0 0 1 0 0)"/>
   <path d="m126.19,32.51l-6.18,13.85l4.04,0l1.1,-2.69l5.92,0l1.1,2.69l4.12,0l-6.2,-13.85l-3.9,0l0,0zm0.12,8.27l1.8,-4.43l1.8,4.43l-3.6,0l0,0z" fill="#ffffff" id="svg_16" transform="matrix(1 0 0 1 0 0)"/>
   <path d="m147.11,39.19l4.38,-6.68l-4.16,0l-3.34,5.38l-1.9,0l0,-5.38l-3.94,0l0,13.85l3.94,0l0,-5.3l1.8,0l3.18,5.3l4.46,0l-4.42,-7.17z" fill="#ffffff" id="svg_17"/>
  </g>
 </g>
</svg>